<?xml version="1.0" encoding="iso-8859-1"?>
<!-- Generator: Adobe Illustrator 19.0.0, SVG Export Plug-In . SVG Version: 6.00 Build 0)  -->
<svg version="1.1" id="Capa_1" xmlns="http://www.w3.org/2000/svg" xmlns:xlink="http://www.w3.org/1999/xlink" x="0px" y="0px"
	 viewBox="0 0 480.003 480.003" style="enable-background:new 0 0 480.003 480.003;" xml:space="preserve">
<g>
	<g>
		<path d="M478.523,307.368c-1.5-2.112-3.93-3.367-6.52-3.368h-72V72c0-4.418-3.582-8-8-8h-24V40c0-4.418-3.582-8-8-8h-192
			c0-17.673-14.327-32-32-32s-32,14.327-32,32h-24c-4.418,0-8,3.582-8,8v264h-64c-4.418,0.001-7.999,3.583-7.999,8.001
			c0,1.348,0.341,2.674,0.991,3.855l88,160c1.406,2.556,4.091,4.144,7.008,4.144h320c3.425,0.098,6.495-2.101,7.504-5.376h0.048
			l56-160C480.404,312.181,480.02,309.478,478.523,307.368z M368.003,368V80h16v317.224L367.931,368H368.003z M136.003,16
			c8.837,0,16,7.163,16,16h-32C120.003,23.163,127.167,16,136.003,16z M88.003,48h64v24c0,4.418-3.582,8-8,8s-8-3.582-8-8v-8h-16v8
			c0,13.255,10.745,24,24,24s24-10.745,24-24V48h184v291.04l-16.992-30.896c-1.406-2.556-4.091-4.143-7.008-4.144h-240V48z
			 M100.731,464l-79.2-144h301.744l79.2,144H100.731z M414.403,452.44l-14.4-26.128V320h60.72L414.403,452.44z"/>
	</g>
</g>
<g>
	<g>
		<path d="M400.003,32h-16v16h16c8.837,0,16,7.163,16,16v112h16V64C432.003,46.327,417.676,32,400.003,32z"/>
	</g>
</g>
<g>
	<g>
		<rect x="416.003" y="192" width="16" height="16"/>
	</g>
</g>
<g>
	<g>
		<rect x="40.003" y="160" width="16" height="112"/>
	</g>
</g>
<g>
	<g>
		<rect x="40.003" y="128" width="16" height="16"/>
	</g>
</g>
<g>
	<g>
		<path d="M272.003,104h-24V80c0-4.418-3.582-8-8-8h-32c-4.418,0-8,3.582-8,8v24h-24c-4.418,0-8,3.582-8,8v32c0,4.418,3.582,8,8,8
			h24v24c0,4.418,3.582,8,8,8h32c4.418,0,8-3.582,8-8v-24h24c4.418,0,8-3.582,8-8v-32C280.003,107.582,276.421,104,272.003,104z
			 M264.003,136h-24c-4.418,0-8,3.582-8,8v24h-16v-24c0-4.418-3.582-8-8-8h-24v-16h24c4.418,0,8-3.582,8-8V88h16v24
			c0,4.418,3.582,8,8,8h24V136z"/>
	</g>
</g>
<g>
	<g>
		<rect x="128.003" y="200" width="16" height="16"/>
	</g>
</g>
<g>
	<g>
		<rect x="160.003" y="200" width="168" height="16"/>
	</g>
</g>
<g>
	<g>
		<rect x="112.003" y="232" width="216" height="16"/>
	</g>
</g>
<g>
	<g>
		<rect x="112.003" y="264" width="184" height="16"/>
	</g>
</g>
<g>
	<g>
		<rect x="318.635" y="72" width="16.456" height="16"/>
	</g>
</g>
<g>
	<g>
		<rect x="320.003" y="104" width="16" height="16"/>
	</g>
</g>
<g>
</g>
<g>
</g>
<g>
</g>
<g>
</g>
<g>
</g>
<g>
</g>
<g>
</g>
<g>
</g>
<g>
</g>
<g>
</g>
<g>
</g>
<g>
</g>
<g>
</g>
<g>
</g>
<g>
</g>
</svg>
