<svg xmlns="http://www.w3.org/2000/svg" viewBox="0 0 45 48"><title>icon-logout</title><g id="Layer_2" data-name="Layer 2"><g id="Layer_1-2" data-name="Layer 1"><path d="M21.68,45.25H9a6.21,6.21,0,0,1-6.24-6.16V8.91A6.21,6.21,0,0,1,9,2.75H21.88a1.38,1.38,0,1,0,0-2.75H9A9,9,0,0,0,0,8.91V39.09A9,9,0,0,0,9,48H21.68a1.38,1.38,0,1,0,0-2.75Z"/><path d="M44.59,23l-8.84-8.74a1.4,1.4,0,0,0-2,0,1.36,1.36,0,0,0,0,1.95l6.47,6.39H12a1.38,1.38,0,1,0,0,2.76H40.25l-6.47,6.39a1.36,1.36,0,0,0,0,1.95,1.44,1.44,0,0,0,1,.41,1.4,1.4,0,0,0,1-.41L44.58,25A1.38,1.38,0,0,0,44.59,23Z"/></g></g></svg>