<?xml version="1.0" standalone="no"?>
<!DOCTYPE svg PUBLIC "-//W3C//DTD SVG 1.1//EN" "http://www.w3.org/Graphics/SVG/1.1/DTD/svg11.dtd" >
<svg xmlns="http://www.w3.org/2000/svg">
<metadata>Generated by IcoMoon</metadata>
<defs>
<font id="otsk-interactions-20180816" horiz-adv-x="1024">
<font-face units-per-em="1024" ascent="960" descent="-64" />
<missing-glyph horiz-adv-x="1024" />
<glyph unicode="&#x20;" horiz-adv-x="512" d="" />
<glyph unicode="&#xe900;" glyph-name="calendar" d="M853.333 746.667v-170.667h-682.667v170.667h128v-85.333h85.333v85.333h256v-85.333h85.333v85.333h128zM170.667 533.333h682.667v-426.667h-682.667v426.667zM640 362.667h85.333v85.333h-85.333v-85.333zM640 192h85.333v85.333h-85.333v-85.333zM469.333 362.667h85.333v85.333h-85.333v-85.333zM469.333 192h85.333v85.333h-85.333v-85.333zM298.667 362.667h85.333v85.333h-85.333v-85.333zM298.667 192h85.333v85.333h-85.333v-85.333z" />
<glyph unicode="&#xe901;" glyph-name="delete" d="M571.733 448l119.467-119.467-59.733-59.733-119.467 119.467-119.467-119.467-59.733 59.733 119.467 119.467-119.467 119.467 59.733 59.733 119.467-119.467 119.467 119.467 59.733-59.733-119.467-119.467z" />
<glyph unicode="&#xe902;" glyph-name="hcp-hospital" d="M640 746.667h-213.333v-213.333h213.333v213.333zM597.333 576h-42.667v42.667h-42.667v-42.667h-42.667v128h42.667v-42.667h42.667v42.667h42.667v-128zM725.333 149.333v469.333h-42.667v-128h-298.667v128h-42.667v-469.333h-42.667v-42.667h469.333v42.667h-42.667zM426.667 149.333h-42.667v42.667h42.667v-42.667zM426.667 234.667h-42.667v42.667h42.667v-42.667zM426.667 320h-42.667v42.667h42.667v-42.667zM426.667 405.333h-42.667v42.667h42.667v-42.667zM512 149.333h-42.667v42.667h42.667v-42.667zM512 234.667h-42.667v42.667h42.667v-42.667zM512 320h-42.667v42.667h42.667v-42.667zM512 405.333h-42.667v42.667h42.667v-42.667zM597.333 149.333h-42.667v42.667h42.667v-42.667zM597.333 234.667h-42.667v42.667h42.667v-42.667zM597.333 320h-42.667v42.667h42.667v-42.667zM597.333 405.333h-42.667v42.667h42.667v-42.667zM682.667 149.333h-42.667v42.667h42.667v-42.667zM682.667 234.667h-42.667v42.667h42.667v-42.667zM682.667 320h-42.667v42.667h42.667v-42.667zM682.667 405.333h-42.667v42.667h42.667v-42.667z" />
<glyph unicode="&#xe903;" glyph-name="hcp-location" d="M512 661.333c-93.867 0-170.667-76.8-170.667-170.667s170.667-298.667 170.667-298.667 170.667 204.8 170.667 298.667c0 93.867-76.8 170.667-170.667 170.667zM512 405.333c-46.933 0-85.333 38.4-85.333 85.333s38.4 85.333 85.333 85.333 85.333-38.4 85.333-85.333c0-46.933-38.4-85.333-85.333-85.333z" />
<glyph unicode="&#xe904;" glyph-name="interaction-email" d="M170.667 657.067v0l682.667 4.267v-4.267l-341.333-226.133-341.333 226.133zM512 366.933l-341.333 226.133v-358.4h682.667v358.4l-341.333-226.133z" />
<glyph unicode="&#xe905;" glyph-name="interaction-face" d="M597.333 149.333h-512v98.133c0 17.067 12.8 38.4 29.867 46.933l140.8 93.867v59.733c-25.6 21.333-42.667 55.467-42.667 89.6v85.333c0 68.267 55.467 123.733 123.733 123.733h8.533c68.267 0 123.733-55.467 123.733-123.733v-85.333c0-34.133-17.067-68.267-42.667-89.6v-55.467l140.8-93.867c17.067-8.533 29.867-29.867 29.867-46.933v-102.4zM938.667 260.267c0 12.8-12.8 29.867-25.6 38.4l-115.2 81.067v34.133c21.333 17.067 34.133 46.933 34.133 76.8v68.267c0 55.467-46.933 102.4-102.4 102.4h-8.533c-55.467 0-102.4-46.933-102.4-102.4v-72.533c0-29.867 17.067-55.467 34.133-76.8v-34.133l-12.8-8.533c25.6-17.067 42.667-51.2 42.667-76.8v-140.8h256v110.933z" />
<glyph unicode="&#xe906;" glyph-name="interaction-phone" d="M797.867 260.267c0 0 0 0 0 0l-110.933 81.067c-12.8 12.8-34.133 8.533-46.933-4.267l-17.067-17.067c-38.4-38.4-119.467-12.8-183.467 51.2s-89.6 149.333-51.2 183.467l17.067 21.333c12.8 12.8 12.8 34.133 4.267 46.933l-81.067 110.933c0 0-4.267 4.267-4.267 4.267-8.533 4.267-17.067 8.533-25.6 8.533s-21.333-4.267-25.6-12.8l-29.867-25.6c-72.533-72.533 0-238.933 145.067-384s311.467-217.6 384-145.067l29.867 29.867c8.533 8.533 12.8 17.067 12.8 29.867-4.267 4.267-8.533 12.8-17.067 21.333z" />
<glyph unicode="&#xe907;" glyph-name="checkbox-checked" d="M725.333 746.667h-426.667c-46.933 0-85.333-38.4-85.333-85.333v-426.667c0-46.933 38.4-85.333 85.333-85.333h426.667c46.933 0 85.333 38.4 85.333 85.333v426.667c0 46.933-38.4 85.333-85.333 85.333zM469.333 328.533l-115.2 115.2 46.933 46.933 68.267-68.267 149.333 149.333 46.933-46.933-196.267-196.267z" />
<glyph unicode="&#xe908;" glyph-name="checkbox-unchecked" d="M725.333 746.667h-426.667c-46.933 0-85.333-38.4-85.333-85.333v-426.667c0-46.933 38.4-85.333 85.333-85.333h426.667c46.933 0 85.333 38.4 85.333 85.333v426.667c0 46.933-38.4 85.333-85.333 85.333zM768 234.667c0-25.6-17.067-42.667-42.667-42.667h-426.667c-25.6 0-42.667 17.067-42.667 42.667v426.667c0 25.6 17.067 42.667 42.667 42.667h426.667c25.6 0 42.667-17.067 42.667-42.667v-426.667z" />
<glyph unicode="&#xe909;" glyph-name="consent-circle" d="M853.333 448c0-188.513-152.82-341.333-341.333-341.333s-341.333 152.82-341.333 341.333c0 188.513 152.82 341.333 341.333 341.333s341.333-152.82 341.333-341.333z" />
<glyph unicode="&#xe90a;" glyph-name="consent-no" d="M512 789.333c-187.733 0-341.333-153.6-341.333-341.333s153.6-341.333 341.333-341.333 341.333 153.6 341.333 341.333-153.6 341.333-341.333 341.333zM725.333 405.333h-426.667v85.333h426.667v-85.333z" />
<glyph unicode="&#xe90b;" glyph-name="consent-no-sign" d="M298.667 490.667h426.667v-85.333h-426.667v85.333z" />
<glyph unicode="&#xe90c;" glyph-name="consent-yes" d="M512 789.333c-187.733 0-341.333-153.6-341.333-341.333s153.6-341.333 341.333-341.333 341.333 153.6 341.333 341.333-153.6 341.333-341.333 341.333zM469.333 294.4l-162.133 162.133 64 64 93.867-93.867 179.2 179.2 64-64-238.933-247.467z" />
<glyph unicode="&#xe90d;" glyph-name="consent-yes-sign" d="M469.333 294.4l-162.133 157.867 68.267 64 93.867-93.867 179.2 179.2 68.267-64z" />
<glyph unicode="&#xe90e;" glyph-name="nav-logout" d="M384 234.667h170.667v-42.667h-170.667c-46.933 0-85.333 38.4-85.333 85.333v298.667c0 46.933 38.4 85.333 85.333 85.333h170.667v-42.667h-170.667c-25.6 0-42.667-17.067-42.667-42.667v-298.667c0-25.6 17.067-42.667 42.667-42.667zM768 426.667l-170.667 106.667v-85.333h-170.667v-42.667h170.667v-85.333l170.667 106.667z" />
<glyph unicode="&#xe90f;" glyph-name="nav-dashboard" d="M256 375.467c12.8-8.533 25.6-12.8 42.667-12.8h42.667c17.067 0 29.867 4.267 42.667 12.8 25.6 12.8 42.667 42.667 42.667 72.533v213.333c0 29.867-17.067 59.733-42.667 72.533-12.8 8.533-25.6 12.8-42.667 12.8h-42.667c-17.067 0-29.867-4.267-42.667-12.8-25.6-12.8-42.667-42.667-42.667-72.533v-213.333c0-29.867 17.067-59.733 42.667-72.533zM256 661.333c0 25.6 17.067 42.667 42.667 42.667h42.667c25.6 0 42.667-17.067 42.667-42.667v-213.333c0-25.6-17.067-42.667-42.667-42.667h-42.667c-25.6 0-42.667 17.067-42.667 42.667v213.333zM810.667 733.867c-12.8 8.533-25.6 12.8-42.667 12.8h-213.333c-17.067 0-29.867-4.267-42.667-12.8-25.6-12.8-42.667-42.667-42.667-72.533v-213.333c0-29.867 17.067-59.733 42.667-72.533 12.8-8.533 25.6-12.8 42.667-12.8h213.333c17.067 0 29.867 4.267 42.667 12.8 25.6 12.8 42.667 42.667 42.667 72.533v213.333c0 29.867-17.067 59.733-42.667 72.533zM810.667 448c0-25.6-17.067-42.667-42.667-42.667h-213.333c-25.6 0-42.667 17.067-42.667 42.667v213.333c0 25.6 17.067 42.667 42.667 42.667h213.333c25.6 0 42.667-17.067 42.667-42.667v-213.333zM810.667 307.2c-12.8 8.533-25.6 12.8-42.667 12.8h-42.667c-17.067 0-29.867-4.267-42.667-12.8-25.6-12.8-42.667-42.667-42.667-72.533v-42.667c0-29.867 17.067-59.733 42.667-72.533 12.8-8.533 25.6-12.8 42.667-12.8h42.667c17.067 0 29.867 4.267 42.667 12.8 25.6 12.8 42.667 42.667 42.667 72.533v42.667c0 29.867-17.067 59.733-42.667 72.533zM810.667 192c0-25.6-17.067-42.667-42.667-42.667h-42.667c-25.6 0-42.667 17.067-42.667 42.667v42.667c0 25.6 17.067 42.667 42.667 42.667h42.667c25.6 0 42.667-17.067 42.667-42.667v-42.667zM554.667 307.2c-12.8 8.533-25.6 12.8-42.667 12.8h-213.333c-17.067 0-29.867-4.267-42.667-12.8-25.6-12.8-42.667-42.667-42.667-72.533v-42.667c0-29.867 17.067-59.733 42.667-72.533 12.8-8.533 25.6-12.8 42.667-12.8h213.333c17.067 0 29.867 4.267 42.667 12.8 25.6 12.8 42.667 42.667 42.667 72.533v42.667c0 29.867-17.067 59.733-42.667 72.533zM554.667 192c0-25.6-17.067-42.667-42.667-42.667h-213.333c-25.6 0-42.667 17.067-42.667 42.667v42.667c0 25.6 17.067 42.667 42.667 42.667h213.333c25.6 0 42.667-17.067 42.667-42.667v-42.667z" />
<glyph unicode="&#xe910;" glyph-name="nav-hcps" d="M512 874.667c-234.667 0-426.667-192-426.667-426.667s192-426.667 426.667-426.667 426.667 192 426.667 426.667c0 234.667-192 426.667-426.667 426.667zM512 64c-213.333 0-384 170.667-384 384s170.667 384 384 384 384-170.667 384-384c0-213.333-170.667-384-384-384zM725.333 520.533c-12.8 8.533-25.6 12.8-42.667 12.8h-85.333v85.333c0 17.067-4.267 29.867-12.8 42.667-12.8 25.6-42.667 42.667-72.533 42.667s-59.733-17.067-72.533-42.667c-8.533-12.8-12.8-25.6-12.8-42.667v-85.333h-85.333c-17.067 0-29.867-4.267-42.667-12.8-25.6-12.8-42.667-42.667-42.667-72.533s17.067-59.733 42.667-72.533c12.8-8.533 25.6-12.8 42.667-12.8h85.333v-85.333c0-17.067 4.267-29.867 12.8-42.667 12.8-25.6 42.667-42.667 72.533-42.667s59.733 17.067 72.533 42.667c8.533 12.8 12.8 25.6 12.8 42.667v85.333h85.333c17.067 0 29.867 4.267 42.667 12.8 25.6 12.8 42.667 42.667 42.667 72.533s-17.067 59.733-42.667 72.533zM682.667 405.333h-128v-128c0-25.6-17.067-42.667-42.667-42.667s-42.667 17.067-42.667 42.667v128h-128c-25.6 0-42.667 17.067-42.667 42.667s17.067 42.667 42.667 42.667h128v128c0 25.6 17.067 42.667 42.667 42.667s42.667-17.067 42.667-42.667v-128h128c25.6 0 42.667-17.067 42.667-42.667s-17.067-42.667-42.667-42.667z" />
<glyph unicode="&#xe911;" glyph-name="nav-record" d="M384 490.667h256v-42.667h-256v42.667zM384 362.667h256v42.667h-256v-42.667zM384 277.333h256v42.667h-256v-42.667zM768 618.667v-426.667c0-46.933-38.4-85.333-85.333-85.333h-341.333c-46.933 0-85.333 38.4-85.333 85.333v426.667c0 46.933 38.4 85.333 85.333 85.333h42.667v42.667h256v-42.667h42.667c46.933 0 85.333-38.4 85.333-85.333zM426.667 661.333h170.667v42.667h-170.667v-42.667zM725.333 618.667c0 25.6-17.067 42.667-42.667 42.667h-42.667v-42.667h-256v42.667h-42.667c-25.6 0-42.667-17.067-42.667-42.667v-426.667c0-25.6 17.067-42.667 42.667-42.667h341.333c25.6 0 42.667 17.067 42.667 42.667v426.667z" />
<glyph unicode="&#xe912;" glyph-name="nav-report" d="M469.333 618.667c-140.8 0-256-115.2-256-256s115.2-256 256-256 256 115.2 256 256h-256v256zM678.4 320c-21.333-98.133-106.667-170.667-209.067-170.667-119.467 0-213.333 93.867-213.333 213.333 0 102.4 72.533 187.733 170.667 209.067v-251.733h251.733zM512 746.667v-341.333h341.333c0 187.733-153.6 341.333-341.333 341.333zM554.667 699.733c132.267-17.067 234.667-123.733 251.733-251.733h-251.733v251.733z" />
<glyph unicode="&#xe913;" glyph-name="add-plus" d="M682.667 448h-128v128h-42.667v-128h-128v-42.667h128v-128h42.667v128h128z" />
<glyph unicode="&#xe914;" glyph-name="button-approve" d="M512 874.667c-234.667 0-426.667-192-426.667-426.667s192-426.667 426.667-426.667 426.667 192 426.667 426.667-192 426.667-426.667 426.667zM512 64c-213.333 0-384 170.667-384 384s170.667 384 384 384 384-170.667 384-384-170.667-384-384-384zM469.333 422.4l-93.867 93.867-68.267-64 162.133-157.867 247.467 243.2-68.267 64z" />
<glyph unicode="&#xe915;" glyph-name="button-comment-off" d="M853.333 874.667h-682.667c-46.933 0-85.333-38.4-85.333-85.333v-512c0-46.933 38.4-85.333 85.333-85.333h170.667v-170.667l341.333 170.667h170.667c46.933 0 85.333 38.4 85.333 85.333v512c0 46.933-38.4 85.333-85.333 85.333zM896 277.333c0-25.6-17.067-42.667-42.667-42.667h-179.2l-290.133-145.067v145.067h-213.333c-25.6 0-42.667 17.067-42.667 42.667v512c0 25.6 17.067 42.667 42.667 42.667h682.667c25.6 0 42.667-17.067 42.667-42.667v-512zM469.333 576h85.333v-85.333h-85.333v85.333zM298.667 576h85.333v-85.333h-85.333v85.333zM640 576h85.333v-85.333h-85.333v85.333z" />
<glyph unicode="&#xe916;" glyph-name="button-comment-on" d="M853.333 874.667h-682.667c-46.933 0-85.333-38.4-85.333-85.333v-512c0-46.933 38.4-85.333 85.333-85.333h170.667v-170.667l341.333 170.667h170.667c46.933 0 85.333 38.4 85.333 85.333v512c0 46.933-38.4 85.333-85.333 85.333zM384 490.667h-85.333v85.333h85.333v-85.333zM554.667 490.667h-85.333v85.333h85.333v-85.333zM725.333 490.667h-85.333v85.333h85.333v-85.333z" />
<glyph unicode="&#xe917;" glyph-name="button-new-objective" d="M256 490.667h4.267c4.267 12.8 8.533 29.867 12.8 42.667h-17.067c-17.067 0-29.867-4.267-42.667-12.8-25.6-12.8-42.667-42.667-42.667-72.533s17.067-59.733 42.667-72.533c12.8-8.533 25.6-12.8 42.667-12.8h17.067c-4.267 12.8-12.8 29.867-12.8 42.667h-4.267c-25.6 0-42.667 17.067-42.667 42.667s17.067 42.667 42.667 42.667zM810.667 520.533c-12.8 8.533-25.6 12.8-42.667 12.8h-17.067c4.267-12.8 12.8-29.867 12.8-42.667h4.267c25.6 0 42.667-17.067 42.667-42.667s-17.067-42.667-42.667-42.667h-4.267c-4.267-12.8-8.533-29.867-12.8-42.667h17.067c17.067 0 29.867 4.267 42.667 12.8 25.6 12.8 42.667 42.667 42.667 72.533s-17.067 59.733-42.667 72.533zM554.667 192c0-25.6-17.067-42.667-42.667-42.667s-42.667 17.067-42.667 42.667v4.267c-12.8 4.267-29.867 8.533-42.667 12.8v-17.067c0-17.067 4.267-29.867 12.8-42.667 12.8-25.6 42.667-42.667 72.533-42.667s59.733 17.067 72.533 42.667c8.533 12.8 12.8 25.6 12.8 42.667v17.067c-12.8-4.267-29.867-12.8-42.667-12.8v-4.267zM469.333 704c0 25.6 17.067 42.667 42.667 42.667s42.667-17.067 42.667-42.667v-4.267c12.8-4.267 29.867-8.533 42.667-12.8v17.067c0 17.067-4.267 29.867-12.8 42.667-12.8 25.6-42.667 42.667-72.533 42.667s-59.733-17.067-72.533-42.667c-8.533-12.8-12.8-25.6-12.8-42.667v-17.067c12.8 4.267 29.867 12.8 42.667 12.8v4.267zM512 618.667c-93.867 0-170.667-76.8-170.667-170.667s76.8-170.667 170.667-170.667 170.667 76.8 170.667 170.667c0 93.867-76.8 170.667-170.667 170.667zM512 320c-72.533 0-128 55.467-128 128s55.467 128 128 128 128-55.467 128-128-55.467-128-128-128z" />
<glyph unicode="&#xe918;" glyph-name="button-rec-interaction" d="M341.333 490.667h341.333v-42.667h-341.333v42.667zM341.333 576h341.333v-42.667h-341.333v42.667zM341.333 405.333h341.333v-42.667h-341.333v42.667zM341.333 320h341.333v-42.667h-341.333v42.667zM341.333 234.667h341.333v-42.667h-341.333v42.667zM768 789.333h-128v42.667h-256v-42.667h-128c-46.933 0-85.333-38.4-85.333-85.333v-597.333c0-46.933 38.4-85.333 85.333-85.333h512c46.933 0 85.333 38.4 85.333 85.333v597.333c0 46.933-38.4 85.333-85.333 85.333zM426.667 789.333h170.667v-42.667h-170.667v42.667zM810.667 106.667c0-25.6-17.067-42.667-42.667-42.667h-512c-25.6 0-42.667 17.067-42.667 42.667v597.333c0 25.6 17.067 42.667 42.667 42.667h128v-42.667h256v42.667h128c25.6 0 42.667-17.067 42.667-42.667v-597.333z" />
<glyph unicode="&#xe919;" glyph-name="button-update-plan" d="M329.6 492.8l-102.4-102.4c-19.2 89.6 6.4 188.8 80 259.2 105.6 105.6 268.8 112 384 22.4l22.4 22.4c-124.8 102.4-310.4 96-428.8-22.4-73.6-73.6-105.6-176-89.6-272l-89.6 89.6-22.4-22.4 134.4-134.4 134.4 134.4-22.4 25.6zM940.8 425.6l-134.4 134.4-134.4-134.4 22.4-22.4 102.4 102.4c19.2-89.6-6.4-188.8-80-259.2-105.6-105.6-268.8-112-384-22.4l-22.4-22.4c124.8-102.4 310.4-96 428.8 22.4 73.6 73.6 105.6 176 89.6 272l89.6-89.6 22.4 19.2z" />
<glyph unicode="&#xe91a;" glyph-name="empty-quarters" d="M554.667 832v-384h384c-12.8 204.8-179.2 371.2-384 384zM597.333 785.067c149.333-25.6 264.533-145.067 294.4-294.4h-294.4v294.4zM554.667 21.333c204.8 12.8 371.2 174.933 384 384h-384v-384zM597.333 362.667h294.4c-25.6-149.333-145.067-264.533-294.4-294.4v294.4zM128 448h384v384c-204.8-12.8-371.2-179.2-384-384zM469.333 785.067v-294.4h-294.4c29.867 149.333 145.067 264.533 294.4 294.4zM512 21.333v384h-384c12.8-204.8 179.2-371.2 384-384zM469.333 68.267c-149.333 25.6-264.533 145.067-294.4 294.4h294.4v-294.4z" />
<glyph unicode="&#xe91b;" glyph-name="filled-quarters" d="M554.667 832v-384h384c-12.8 204.8-179.2 371.2-384 384zM512 21.333v384h-384c12.8-204.8 179.2-371.2 384-384zM554.667 21.333c204.8 12.8 371.2 174.933 384 384h-384v-384zM128 448h384v384c-204.8-12.8-371.2-179.2-384-384z" />
<glyph unicode="&#xe91c;" glyph-name="objective" d="M640 448c0-72.533-55.467-128-128-128s-128 55.467-128 128 55.467 128 128 128 128-55.467 128-128zM938.667 490.667v-85.333h-89.6c-21.333-153.6-140.8-277.333-294.4-294.4v-89.6h-85.333v89.6c-153.6 21.333-277.333 140.8-294.4 294.4h-89.6v85.333h89.6c17.067 153.6 140.8 277.333 294.4 294.4v89.6h85.333v-89.6c153.6-21.333 277.333-140.8 294.4-294.4h89.6zM768 448c0 140.8-115.2 256-256 256s-256-115.2-256-256c0-140.8 115.2-256 256-256s256 115.2 256 256z" />
<glyph unicode="&#xe91d;" glyph-name="read-more" d="M725.333 704h-384c-46.933 0-85.333-38.4-85.333-85.333v-384c0-46.933 38.4-85.333 85.333-85.333h384c46.933 0 85.333 38.4 85.333 85.333v384c0 46.933-38.4 85.333-85.333 85.333zM768 234.667c0-25.6-17.067-42.667-42.667-42.667h-384c-25.6 0-42.667 17.067-42.667 42.667v384c0 25.6 17.067 42.667 42.667 42.667h384c25.6 0 42.667-17.067 42.667-42.667v-384zM652.8 499.2l29.867-29.867-149.333-149.333-149.333 149.333 29.867 29.867 119.467-119.467 119.467 119.467z" />
<glyph unicode="&#xe91e;" glyph-name="revert" d="M554.667 699.733v132.267l-298.667-170.667 298.667-170.667v123.733c72.533-17.067 128-85.333 128-166.4 0-93.867-76.8-170.667-170.667-170.667s-170.667 76.8-170.667 170.667h-85.333c0-140.8 115.2-256 256-256s256 115.2 256 256c0 128-93.867 230.4-213.333 251.733z" />
<glyph unicode="&#xe91f;" glyph-name="section-collapse" d="M960 672h-896c-35.2 0-64-28.8-64-64v-416h32v416c0 19.2 12.8 32 32 32h896c19.2 0 32-12.8 32-32v-416h32v416c0 35.2-28.8 64-64 64zM512 422.4l134.4-134.4 48 44.8-182.4 179.2-182.4-179.2 48-44.8z" />
<glyph unicode="&#xe920;" glyph-name="section-expand" d="M1024 608v-416h-32v416c0 19.2-12.8 32-32 32h-896c-19.2 0-32-12.8-32-32v-416h-32v416c0 35.2 28.8 64 64 64h896c35.2 0 64-28.8 64-64zM512 377.6l-134.4 134.4-44.8-44.8 179.2-179.2 182.4 182.4-48 41.6-134.4-134.4z" />
<glyph unicode="&#xe921;" glyph-name="archive" d="M426.667 533.333v-256h-42.667v256h42.667zM469.333 533.333v-256h42.667v256h-42.667zM554.667 533.333v-256h42.667v256h-42.667zM725.333 661.333v-42.667h-469.333v42.667h170.667v85.333h128v-85.333h170.667zM512 704h-42.667v-42.667h42.667v42.667zM640 234.667h-298.667v341.333h-42.667v-384h384v384h-42.667v-341.333z" />
<glyph unicode="&#xe922;" glyph-name="button-new-project" d="M810.667 704h-379.733l-85.333 85.333h-260.267v-554.667h725.333v469.333zM768 277.333h-640v469.333h200.533l85.333-85.333h354.133v-384zM426.667 490.667v85.333h42.667v-85.333h85.333v-42.667h-85.333v-85.333h-42.667v85.333h-85.333v42.667h85.333zM896 618.667v-469.333h-725.333v42.667h682.667v426.667h42.667z" />
<glyph unicode="&#xe923;" glyph-name="edit" d="M640 413.867l42.667 42.667v-264.533h-469.333v469.333h264.533l-42.667-42.667h-179.2v-384h384v179.2zM379.733 435.2l76.8-76.8 234.667 234.667-76.8 76.8-234.667-234.667zM691.2 746.667l-38.4-38.4 76.8-76.8 38.4 38.4-76.8 76.8zM341.333 396.8v-76.8h76.8l-76.8 76.8z" />
<glyph unicode="&#xe924;" glyph-name="nav-data-factors" d="M810.667 704h-128v-469.333h-85.333v341.333h-170.667v-341.333h-85.333v213.333h-170.667v-256h42.667v213.333h85.333v-213.333h170.667v341.333h85.333v-341.333h170.667v469.333h85.333v-469.333h42.667v512z" />
<glyph unicode="&#xe925;" glyph-name="nav-manage" d="M896 533.333l-55.467 4.267c-8.533 25.6-17.067 51.2-29.867 76.8l34.133 42.667c17.067 17.067 17.067 42.667 0 59.733l-59.733 59.733c-17.067 17.067-42.667 17.067-59.733 0l-42.667-34.133c-25.6 12.8-51.2 25.6-76.8 29.867l-8.533 59.733c0 25.6-17.067 42.667-42.667 42.667h-85.333c-25.6 0-42.667-17.067-42.667-42.667l-4.267-55.467c-29.867-8.533-55.467-17.067-76.8-29.867l-42.667 34.133c-17.067 17.067-42.667 17.067-59.733 0l-64-59.733c-17.067-17.067-17.067-42.667 0-59.733l34.133-42.667c-12.8-25.6-21.333-51.2-29.867-81.067l-55.467-4.267c-25.6 0-42.667-17.067-42.667-42.667v-85.333c0-25.6 17.067-42.667 42.667-42.667l55.467-4.267c8.533-25.6 17.067-51.2 29.867-76.8l-34.133-42.667c-17.067-17.067-17.067-42.667 0-59.733l59.733-59.733c17.067-17.067 42.667-17.067 59.733 0l42.667 34.133c25.6-12.8 51.2-25.6 76.8-29.867l8.533-59.733c0-25.6 17.067-42.667 42.667-42.667h85.333c25.6 0 42.667 17.067 42.667 42.667l4.267 55.467c25.6 8.533 51.2 17.067 76.8 29.867l42.667-34.133c17.067-17.067 42.667-17.067 59.733 0l59.733 59.733c17.067 17.067 17.067 42.667 0 59.733l-34.133 42.667c12.8 25.6 25.6 51.2 29.867 76.8l59.733 8.533c25.6 0 42.667 17.067 42.667 42.667v85.333c0 25.6-17.067 42.667-42.667 42.667zM896 405.333l-46.933-4.267-42.667-4.267c-4.267-17.067-8.533-29.867-12.8-42.667s-8.533-25.6-12.8-34.133c-8.533-12.8-12.8-25.6-21.333-38.4l25.6-34.133 29.867-38.4-59.733-59.733-38.4 29.867-34.133 25.6c-12.8-8.533-25.6-17.067-38.4-21.333s-21.333-8.533-34.133-12.8c-12.8-4.267-29.867-8.533-42.667-12.8l-4.267-42.667-8.533-51.2h-85.333l-4.267 46.933-4.267 42.667c-17.067 4.267-29.867 8.533-42.667 12.8s-25.6 8.533-34.133 12.8c-12.8 8.533-25.6 12.8-38.4 21.333l-34.133-25.6-38.4-29.867-59.733 59.733 29.867 38.4 25.6 34.133c-8.533 12.8-17.067 25.6-21.333 38.4s-8.533 21.333-12.8 34.133c-4.267 12.8-8.533 29.867-12.8 42.667l-42.667 4.267-51.2 8.533v85.333l46.933 4.267 42.667 4.267c4.267 17.067 8.533 29.867 12.8 42.667s8.533 25.6 12.8 34.133c8.533 17.067 17.067 29.867 25.6 42.667l-29.867 34.133-29.867 38.4 59.733 59.733 38.4-29.867 34.133-29.867c12.8 8.533 25.6 17.067 38.4 21.333s21.333 8.533 34.133 12.8c12.8 4.267 29.867 8.533 42.667 12.8l4.267 42.667 8.533 51.2h85.333l4.267-46.933 4.267-42.667c17.067-4.267 29.867-8.533 42.667-12.8s25.6-8.533 34.133-12.8c12.8-8.533 25.6-12.8 38.4-21.333l34.133 25.6 38.4 29.867 59.733-59.733-29.867-38.4-25.6-34.133c8.533-12.8 17.067-25.6 21.333-38.4s8.533-21.333 12.8-34.133c4.267-12.8 8.533-29.867 12.8-42.667l42.667-4.267 51.2-8.533v-85.333zM512 618.667c-93.867 0-170.667-76.8-170.667-170.667s76.8-170.667 170.667-170.667 170.667 76.8 170.667 170.667c0 93.867-76.8 170.667-170.667 170.667zM512 320c-72.533 0-128 55.467-128 128s55.467 128 128 128 128-55.467 128-128-55.467-128-128-128z" />
<glyph unicode="&#xe926;" glyph-name="nav-objectives" d="M179.2 533.333h-42.667c25.6 149.333 140.8 264.533 290.133 294.4v-42.667c-123.733-25.6-226.133-128-247.467-251.733zM802.133 533.333h42.667c-25.6 149.333-145.067 264.533-294.4 294.4v-42.667c128-25.6 230.4-128 251.733-251.733zM554.667 157.867v-42.667c149.333 25.6 264.533 145.067 294.4 294.4h-42.667c-25.6-128-128-230.4-251.733-251.733zM179.2 405.333h-42.667c25.6-149.333 145.067-264.533 294.4-294.4v42.667c-128 25.6-230.4 128-251.733 251.733zM512 917.333h-42.667v-128h42.667v128zM469.333 21.333h42.667v128h-42.667v-128zM170.667 490.667h-128v-42.667h128v42.667zM810.667 490.667v-42.667h128v42.667h-128zM490.667 618.667c81.067 0 149.333-68.267 149.333-149.333s-68.267-149.333-149.333-149.333-149.333 68.267-149.333 149.333 68.267 149.333 149.333 149.333zM490.667 576c-59.733 0-106.667-46.933-106.667-106.667s46.933-106.667 106.667-106.667 106.667 46.933 106.667 106.667c0 59.733-46.933 106.667-106.667 106.667z" />
<glyph unicode="&#xe927;" glyph-name="nav-projects" d="M516.267 618.667l-85.333 85.333h-260.267v-554.667h682.667v469.333h-337.067zM810.667 192h-597.333v469.333h200.533l85.333-85.333h311.467v-384zM426.667 490.667h213.333v-42.667h-213.333v42.667zM426.667 320h213.333v-42.667h-213.333v42.667zM426.667 405.333h298.667v-42.667h-298.667v42.667zM298.667 490.667h42.667v-42.667h-42.667v42.667zM298.667 405.333h42.667v-42.667h-42.667v42.667zM298.667 320h42.667v-42.667h-42.667v42.667z" />
<glyph unicode="&#xe928;" glyph-name="nav-resources" d="M213.333 704v-170.667h42.667v-341.333h512v341.333h42.667v170.667h-597.333zM725.333 234.667h-426.667v298.667h426.667v-298.667zM768 576h-512v85.333h512v-85.333zM597.333 448h-170.667v42.667h170.667v-42.667z" />
<glyph unicode="&#xe929;" glyph-name="zinc-global" d="M618.667 469.333h-85.333v85.333c38.4 4.267 72.533 12.8 106.667 25.6-12.8-34.133-21.333-72.533-21.333-110.933zM622.933 426.667h-89.6v-85.333c46.933-4.267 93.867-17.067 132.267-38.4-21.333 34.133-38.4 76.8-42.667 123.733zM234.667 426.667c4.267-55.467 25.6-102.4 55.467-145.067 34.133 38.4 59.733 89.6 68.267 145.067h-123.733zM358.4 302.933c38.4 21.333 85.333 34.133 132.267 38.4v85.333h-89.6c-4.267-46.933-21.333-89.6-42.667-123.733zM789.333 469.333c-4.267 64-29.867 119.467-68.267 162.133-4.267-4.267-8.533-8.533-12.8-8.533-29.867-42.667-46.933-93.867-46.933-153.6h128zM405.333 469.333h85.333v85.333c-38.4 4.267-72.533 12.8-106.667 25.6 12.8-34.133 21.333-72.533 21.333-110.933zM490.667 170.667v123.733c-59.733-4.267-110.933-25.6-157.867-64 46.933-29.867 98.133-55.467 157.867-59.733zM533.333 170.667c59.733 4.267 110.933 25.6 157.867 64-42.667 34.133-98.133 59.733-157.867 64v-128zM686.933 665.6c-42.667 34.133-93.867 55.467-153.6 59.733v-123.733c51.2 4.267 102.4 21.333 140.8 51.2 4.267 4.267 8.533 8.533 12.8 12.8zM733.867 281.6c29.867 42.667 51.2 89.6 55.467 145.067h-123.733c8.533-55.467 34.133-106.667 68.267-145.067zM315.733 622.933c-4.267 0-8.533 4.267-12.8 8.533-38.4-42.667-64-98.133-68.267-162.133h128c0 55.467-17.067 106.667-46.933 153.6zM349.867 652.8c38.4-29.867 89.6-46.933 140.8-51.2v123.733c-55.467-4.267-110.933-25.6-153.6-59.733 4.267-4.267 8.533-8.533 12.8-12.8z" />
<glyph unicode="&#xe92a;" glyph-name="zinc-local" d="M512 704c-93.867 0-170.667-76.8-170.667-170.667s170.667-298.667 170.667-298.667 170.667 204.8 170.667 298.667c0 93.867-76.8 170.667-170.667 170.667zM512 448c-46.933 0-85.333 38.4-85.333 85.333s38.4 85.333 85.333 85.333 85.333-38.4 85.333-85.333c0-46.933-38.4-85.333-85.333-85.333z" />
<glyph unicode="&#xe92b;" glyph-name="arrow-down" d="M512 362.667l-128 170.667h256l-128-170.667z" />
<glyph unicode="&#xe92c;" glyph-name="arrow-up" d="M512 533.333l128-170.667h-256l128 170.667z" />
</font>
</defs>
</svg>
