<svg xmlns="http://www.w3.org/2000/svg" xmlns:xlink="http://www.w3.org/1999/xlink" viewBox="0 0 425.79 156"><defs><style>.cls-1{fill:url(#radial-gradient);}.cls-2{fill:#ba0d2b;}.cls-3{fill:#1f6fb8;}.cls-4{fill:#d81e30;}</style><radialGradient id="radial-gradient" cx="2308.06" cy="5177.45" r="0.5" gradientTransform="matrix(259.86, 0, 0, -260.12, -599735.14, 1346873.58)" gradientUnits="userSpaceOnUse"><stop offset="0" stop-color="#9fc9eb"/><stop offset="0.49" stop-color="#76acdc"/><stop offset="1" stop-color="#0073bc"/></radialGradient></defs><title>logo</title><g id="Layer_2" data-name="Layer 2"><g id="Layer_1-2" data-name="Layer 1"><path class="cls-1" d="M78.7.5c-11.22,1.9-38.33,11.4-55.32,22C3.86,34.65-2.22,46.5.69,61.42,3.22,74.34,8.66,87,17.88,101.9,28,118.18,43.23,127.59,62.32,119s46.38-28.73,56.31-41c11.6-14.32,11.6-27.45,7.3-40.63-3.4-10.43-8.58-18-15.74-25.9A34.61,34.61,0,0,0,84.59,0,35.31,35.31,0,0,0,78.7.5"/><path class="cls-2" d="M47.12,130.31c2.29-3.39,5.33-4.55,10.42-3.19,4.43,1.16,10.62,4.65,12.16,6.16,2.26,2.25,3,4.52,2.63,8.05a22,22,0,0,1-2.41,7.95c-2,3.94-4.79,6.34-8.47,6.4S50.08,154.9,45.7,153s-4.91-6.61-3.42-11.65A38.51,38.51,0,0,1,47.12,130.31Z"/><path class="cls-3" d="M165.05,95.68c-19.49,0-28.37,15.63-28.37,30.16S145.56,156,165.05,156s28.37-15.66,28.37-30.16S184.54,95.68,165.05,95.68Zm0,57.47c-17.66,0-23.93-14.73-23.93-27.31s6.27-27.31,23.93-27.31S189,113.24,189,125.84,182.71,153.15,165.05,153.15Z"/><path class="cls-3" d="M219.24,111.92h-6.32V100.26c0-2.67-1.36-2.67-1.92-2.67s-1.92,0-1.92,2.67v11.66h-6.34c-1,0-1.43.39-1.43,1.16s.48,1.17,1.43,1.17h6.34v39.19c0,2.56,1.34,2.56,1.92,2.56s1.92,0,1.92-2.56V114.25h6.32c.95,0,1.44-.39,1.44-1.17S220.19,111.92,219.24,111.92Z"/><path class="cls-3" d="M251.37,136.27l-12.32-4.45c-5.83-2.11-8.22-5.25-8.22-9.65,0-6.65,8.4-10.77,16.16-10.77a29.47,29.47,0,0,1,14.6,3.56c2.15,1.21.41,3.68-1.54,2.65-3.43-1.8-6-3.88-12.78-3.88-6,0-12.15,2.75-12.15,8,0,3.06,2.4,5.34,6.08,6.6L252,132.15c7.72,2.73,12.19,5.76,12.19,11.86,0,7.17-7.16,12-17.83,12-9,0-14.9-4-17.42-6.52-2-2,.47-4.16,2.17-2.47a20.79,20.79,0,0,0,15.55,6.66c7.46,0,13.23-4,13.23-9.4C259.9,139.19,255.42,137.73,251.37,136.27Z"/><path class="cls-3" d="M312.54,111.4c-.59,0-1.94,0-1.94,2.55V140.1c0,3.56-.29,6.5-1.88,8.72-2.28,3.13-6.69,4.85-12.68,4.85s-10.23-1.74-12.53-4.92c-1.6-2.21-2.07-5.13-2.07-8.65V114c0-2.55-1.34-2.55-1.93-2.55s-1.92,0-1.92,2.55v27.68c0,8.73,7.24,14.37,18.45,14.37s18.41-5.64,18.41-14.37V114C314.45,111.4,313.12,111.4,312.54,111.4Z"/><path class="cls-3" d="M360.24,155.16c2,1.49,2.79.53,3.13.09s1.2-1.48-.76-3.05l-25.06-20.14L362,113.77c1.32-1,.89-1.73.67-2s-.82-.9-2.14.07L333.08,132V93.52c0-2.55-1.36-2.55-1.94-2.55s-1.91,0-1.91,2.55v59.92c0,2.56,1.34,2.56,1.91,2.56s1.94,0,1.94-2.56V133.3Z"/><path class="cls-3" d="M409.62,111.4c-.58,0-1.92.09-1.92,2.55v9.13a17.23,17.23,0,0,0-16.76-11.68C376.57,111.4,370,123,370,133.68S375.56,156,391.13,156c9.58,0,14.59-6,16.61-11.64v9.08c0,2.56,1.3,2.56,1.88,2.56s1.93,0,1.93-2.56V114C411.56,111.52,410.19,111.4,409.62,111.4Zm-18.49,42.27c-12.31,0-17-10.76-17-20,0-9.92,5.48-20,17-20,12.22,0,16.57,10.75,16.57,20s-4.35,20-16.57,20"/><path class="cls-4" d="M187,63V33h4.9V63Zm32.28,0H214.4V49.06a6.07,6.07,0,0,0-1.07-3.92A4.05,4.05,0,0,0,210,43.85a5.33,5.33,0,0,0-4.47,1.8q-1.43,1.8-1.42,6.05V63h-4.82V40.32h3.78l.67,3H204a6.68,6.68,0,0,1,2.91-2.5,9.74,9.74,0,0,1,4.19-.88q8.16,0,8.16,8.3Zm15.15-3.49a11.7,11.7,0,0,0,3.53-.55v3.63a9.42,9.42,0,0,1-2.07.57,13.06,13.06,0,0,1-2.61.25q-6.84,0-6.85-7.22V44H223.3V41.84l3.32-1.77,1.64-4.8h3v5h6.46V44h-6.46V56.11a3.44,3.44,0,0,0,.87,2.58A3.2,3.2,0,0,0,234.39,59.51Zm18,3.9c-3.53,0-6.29-1-8.29-3.08s-3-4.9-3-8.51.92-6.61,2.77-8.73a9.55,9.55,0,0,1,7.61-3.18,9.33,9.33,0,0,1,7.09,2.73,10.39,10.39,0,0,1,2.61,7.5v2.61H246.08a7.49,7.49,0,0,0,1.79,5.08,6.21,6.21,0,0,0,4.73,1.77,18.31,18.31,0,0,0,3.74-.37A20.85,20.85,0,0,0,260.07,58v3.91a14.83,14.83,0,0,1-3.57,1.19A22.07,22.07,0,0,1,252.38,63.41Zm-.88-19.85A4.85,4.85,0,0,0,247.8,45a7,7,0,0,0-1.64,4.24h10.3A6.25,6.25,0,0,0,255.11,45,4.59,4.59,0,0,0,251.5,43.56Zm26.68-3.65a12.16,12.16,0,0,1,2.4.2l-.48,4.49a9.27,9.27,0,0,0-2.13-.24,6.18,6.18,0,0,0-4.69,1.89,6.83,6.83,0,0,0-1.79,4.9V63h-4.82V40.32h3.78l.63,4h.25a9,9,0,0,1,2.93-3.22A7.07,7.07,0,0,1,278.18,39.91ZM299,63l-1-3.16h-.17a9.29,9.29,0,0,1-3.3,2.83,10.57,10.57,0,0,1-4.26.74,7.27,7.27,0,0,1-5.23-1.8,6.77,6.77,0,0,1-1.87-5.11,6,6,0,0,1,2.61-5.29c1.73-1.19,4.38-1.84,7.93-2l3.92-.12V47.93a4.49,4.49,0,0,0-1-3.24,4,4,0,0,0-3.13-1.09,11,11,0,0,0-3.35.51,25.77,25.77,0,0,0-3.07,1.21l-1.56-3.44a16.29,16.29,0,0,1,4-1.46,18.28,18.28,0,0,1,4.14-.51q4.33,0,6.52,1.89c1.48,1.25,2.22,3.23,2.22,5.92V63Zm-7.18-3.28A6,6,0,0,0,296,58.26a5.35,5.35,0,0,0,1.6-4.12v-2l-2.91.13a10,10,0,0,0-5,1.14,3.46,3.46,0,0,0-1.53,3.1,3.07,3.07,0,0,0,.9,2.36A3.88,3.88,0,0,0,291.81,59.72Zm26.5,3.69q-5.15,0-7.83-3t-2.67-8.64q0-5.72,2.79-8.8t8.1-3.07a15.14,15.14,0,0,1,6.46,1.33l-1.46,3.88a14.36,14.36,0,0,0-5-1.19q-5.88,0-5.89,7.81a9.45,9.45,0,0,0,1.46,5.74,5.09,5.09,0,0,0,4.31,1.91,12.32,12.32,0,0,0,6.09-1.6V62a9.73,9.73,0,0,1-2.77,1.08A16.3,16.3,0,0,1,318.31,63.41Zm20.1-3.9a11.75,11.75,0,0,0,3.53-.55v3.63a9.69,9.69,0,0,1-2.08.57,13,13,0,0,1-2.6.25q-6.86,0-6.85-7.22V44h-3.1V41.84l3.33-1.77,1.64-4.8h3v5h6.46V44h-6.46V56.11a3.48,3.48,0,0,0,.86,2.58A3.22,3.22,0,0,0,338.41,59.51ZM351.31,63h-4.82V40.32h4.82ZM346.2,34.31a2.68,2.68,0,0,1,.7-2,2.81,2.81,0,0,1,2-.7,2.69,2.69,0,0,1,2,.7,3.05,3.05,0,0,1,0,3.94,2.69,2.69,0,0,1-2,.7,2.81,2.81,0,0,1-2-.7A2.66,2.66,0,0,1,346.2,34.31Zm32.14,17.31c0,3.7-.95,6.6-2.85,8.67a10.22,10.22,0,0,1-7.94,3.12A11,11,0,0,1,361.93,62a9.47,9.47,0,0,1-3.75-4.13,14,14,0,0,1-1.31-6.23q0-5.52,2.83-8.61t8-3.1a10,10,0,0,1,7.8,3.18A12.21,12.21,0,0,1,378.34,51.62Zm-16.51,0q0,7.85,5.8,7.85t5.74-7.85q0-7.77-5.78-7.77a5,5,0,0,0-4.41,2A10.3,10.3,0,0,0,361.83,51.62Zm42,11.38H399V49.06a6.07,6.07,0,0,0-1.07-3.92,4,4,0,0,0-3.34-1.29,5.33,5.33,0,0,0-4.47,1.8c-.94,1.2-1.42,3.22-1.42,6.05V63h-4.82V40.32h3.78l.67,3h.25a6.74,6.74,0,0,1,2.91-2.5,9.77,9.77,0,0,1,4.19-.88q8.16,0,8.16,8.3Zm21.94-6.46a6,6,0,0,1-2.42,5.11q-2.42,1.76-6.93,1.76A16.46,16.46,0,0,1,409.16,62V57.87a17.91,17.91,0,0,0,7.44,1.85q4.45,0,4.45-2.69a2.11,2.11,0,0,0-.49-1.43,5.74,5.74,0,0,0-1.62-1.19A27.75,27.75,0,0,0,415.8,53a14.65,14.65,0,0,1-5.31-3A5.68,5.68,0,0,1,409.12,46a5.15,5.15,0,0,1,2.34-4.51,11.13,11.13,0,0,1,6.4-1.62,18.08,18.08,0,0,1,7.56,1.62l-1.56,3.63a16.82,16.82,0,0,0-6.17-1.52c-2.54,0-3.81.73-3.81,2.17a2.2,2.2,0,0,0,1,1.81,22.32,22.32,0,0,0,4.35,2,19.79,19.79,0,0,1,4.08,2,5.91,5.91,0,0,1,1.89,2.09A6,6,0,0,1,425.79,56.54Z"/></g></g></svg>